<svg width="66" height="66" viewBox="0 0 66 66" fill="none" xmlns="http://www.w3.org/2000/svg">
<circle cx="33" cy="33" r="33" fill="#7B7B3B"/>
<path d="M22.7082 28.696C20.1162 28.696 18.2922 30.728 18.2922 33.336C18.2922 35.544 19.5562 37.24 21.7322 37.24C23.2202 37.24 24.2762 36.44 24.7882 35.544H24.8522V37.208L26.4042 36.696V36.664C25.8282 36.44 25.6362 36.248 25.6362 35.192V24.104L24.0042 24.824V24.856C24.3882 25.064 24.7722 25.368 24.7722 25.912V29.208C24.2762 28.904 23.5562 28.696 22.7082 28.696ZM19.2842 33.112C19.2842 30.76 20.6602 29.256 22.4842 29.256C23.6842 29.256 24.7722 29.896 24.7722 31.688V34.904C24.2122 35.848 23.2682 36.52 22.0682 36.52C20.4042 36.52 19.2842 35.24 19.2842 33.112ZM28.2197 37H30.0117V36.968C29.5637 36.264 29.5477 35.64 29.5477 34.568V31.384C30.0917 30.696 30.7637 30.024 31.0517 30.024C31.4677 30.024 32.0277 30.072 32.2677 30.12H32.3317V28.696C31.0997 28.696 30.3957 29.864 29.5637 30.68L29.4677 30.664V28.6L27.9157 29.48V29.528C28.2997 29.752 28.6837 30.152 28.6837 30.792V34.584C28.6837 35.656 28.6037 36.264 28.2197 36.968V37ZM35.3703 37.24C36.5223 37.24 37.4823 36.616 38.0583 35.96C38.0583 36.632 38.4903 37.208 39.2743 37.208C40.0903 37.208 40.4423 36.584 40.6663 36.072L40.4743 35.96C40.2503 36.296 40.0103 36.536 39.5943 36.536C39.0983 36.536 38.8903 36.184 38.8903 35.736V30.76C38.8903 29.688 38.4263 28.696 36.6023 28.696C35.3063 28.696 34.3463 29.24 33.6583 29.976L33.8183 30.168C34.3463 29.736 35.1783 29.352 36.2503 29.352C37.7543 29.352 38.0263 30.088 38.0263 30.936V32.216C35.9943 32.44 33.2903 33.384 33.2903 35.4C33.2903 36.52 34.1223 37.24 35.3703 37.24ZM34.1863 35.24C34.1863 33.736 36.1703 33 38.0263 32.712V35.272C37.6103 35.864 36.7463 36.536 35.6743 36.536C34.6983 36.536 34.1863 35.992 34.1863 35.24ZM44.9621 34.344C46.6101 34.344 47.9701 33.048 47.9701 31.528C47.9701 30.76 47.6341 30.072 47.1221 29.576L48.9621 29.608H49.0421V28.52L49.0101 28.504L46.7541 29.256C46.2421 28.904 45.6181 28.696 44.9301 28.696C43.2821 28.696 41.9541 30.024 41.9541 31.528C41.9541 32.52 42.5621 33.448 43.4581 33.96C42.5781 34.152 41.7621 34.616 41.7621 35.592C41.7621 36.136 42.0181 36.568 42.6421 36.792C41.9381 37.112 41.3781 37.704 41.3781 38.6C41.3781 40.04 42.8341 40.824 45.0101 40.824C47.4741 40.824 49.0101 39.8 49.0101 38.296C49.0101 37.224 48.1941 36.296 46.1941 36.232L44.0501 36.168C42.7861 36.136 42.5621 35.752 42.5621 35.352C42.5621 34.712 43.1381 34.36 44.0981 34.216C44.3701 34.296 44.6581 34.344 44.9621 34.344ZM44.9621 33.768C43.6021 33.768 42.8981 32.648 42.8981 31.528C42.8981 30.392 43.5061 29.256 44.9301 29.256C46.3701 29.256 47.0261 30.328 47.0261 31.528C47.0261 32.712 46.3381 33.768 44.9621 33.768ZM42.2421 38.456C42.2421 37.64 42.7381 37.08 43.2341 36.952C43.4261 36.968 43.6341 37 43.8581 37L46.0341 37.064C47.6341 37.112 48.2741 37.624 48.2741 38.52C48.2741 39.72 47.1061 40.248 45.2821 40.248C43.4581 40.248 42.2421 39.72 42.2421 38.456Z" fill="white"/>
</svg>
