<svg width="834" height="68" viewBox="0 0 834 68" fill="none" xmlns="http://www.w3.org/2000/svg">
<path d="M44.2781 31.45C44.6448 31.45 44.9448 31.5833 45.1781 31.85C45.4115 32.1167 45.5115 32.4333 45.4781 32.8C45.4781 33.1667 45.3448 33.4667 45.0781 33.7C44.7781 33.9667 44.3781 34.3167 43.8781 34.75C43.4115 35.15 42.5448 35.8167 41.2781 36.75C40.0115 37.6833 38.7281 38.5333 37.4281 39.3C36.1281 40.0667 34.5948 40.8333 32.8281 41.6C31.0615 42.3333 29.3615 42.85 27.7281 43.15C26.0948 43.45 24.3781 43.4833 22.5781 43.25C20.7781 42.9833 19.1281 42.3667 17.6281 41.4C16.2281 40.5 15.1115 39.3333 14.2781 37.9C14.0448 37.5 13.6781 37.2833 13.1781 37.25C12.7115 37.2167 12.3448 37.4 12.0781 37.8C10.9115 39.6 9.62813 41.1167 8.22813 42.35C6.86146 43.5833 5.59479 44.2167 4.42813 44.25H4.37813C3.77813 44.2167 3.22812 44.0333 2.72812 43.7C2.19479 43.3333 1.81146 42.8667 1.57812 42.3C0.578125 39.8 0.728125 37.3667 2.02812 35C3.12812 32.7 4.66146 30.75 6.62812 29.15C8.62813 27.5167 10.8781 26.4 13.3781 25.8C13.8781 25.6667 14.2948 25.7833 14.6281 26.15C14.9948 26.5167 15.0948 26.95 14.9281 27.45C14.7948 27.9167 14.4781 28.2167 13.9781 28.35C11.8781 28.85 9.99479 29.7833 8.32813 31.15C6.66146 32.4833 5.36146 34.1333 4.42813 36.1C3.49479 37.7 3.32812 39.3667 3.92813 41.1C4.12813 41.4333 4.27813 41.6 4.37813 41.6C4.94479 41.9667 6.04479 40.9333 7.67813 38.5C9.31146 36.0667 10.7781 33.4333 12.0781 30.6C12.3448 30 12.8115 29.75 13.4781 29.85C14.1115 29.95 14.4781 30.3167 14.5781 30.95C14.6115 31.1167 14.6448 31.35 14.6781 31.65C14.7448 31.9167 14.8948 32.4333 15.1281 33.2C15.3615 33.9333 15.6281 34.6333 15.9281 35.3C16.2281 35.9667 16.6615 36.6833 17.2281 37.45C17.7948 38.1833 18.4115 38.7667 19.0781 39.2C20.3448 40.0333 21.7615 40.5333 23.3281 40.7C24.9281 40.8667 26.4448 40.7833 27.8781 40.45C29.3448 40.1167 30.8781 39.6 32.4781 38.9C34.0781 38.1667 35.4615 37.4333 36.6281 36.7C37.7948 35.9667 38.9448 35.1833 40.0781 34.35C41.2115 33.5167 41.9781 32.9333 42.3781 32.6C42.8115 32.2333 43.1281 31.95 43.3281 31.75C43.5948 31.5167 43.9115 31.4167 44.2781 31.45ZM104.813 29.6C105.179 29.5667 105.496 29.6833 105.763 29.95C106.029 30.1833 106.163 30.4833 106.163 30.85C106.163 31.2167 106.046 31.5333 105.813 31.8C104.013 33.6667 101.829 35.5333 99.2625 37.4C96.7292 39.2333 93.8458 40.85 90.6125 42.25C87.3792 43.6167 84.4625 44.3 81.8625 44.3H81.7625C78.8625 44.4 76.4292 43.4 74.4625 41.3C73.6292 40.3667 73.1292 39.2833 72.9625 38.05C72.8958 37.5833 72.6292 37.2833 72.1625 37.15C71.7292 37.0167 71.3458 37.1167 71.0125 37.45C67.0458 41.5833 63.9292 42.9667 61.6625 41.6C60.8625 41.1333 60.3958 40.3833 60.2625 39.35C60.0958 38.2833 60.2292 37.1 60.6625 35.8C61.0958 34.5 61.5458 33.3667 62.0125 32.4C62.4458 31.4333 62.9292 30.4667 63.4625 29.5C63.6625 29.2 63.9292 29.0167 64.2625 28.95C64.5958 28.85 64.9125 28.8833 65.2125 29.05C65.5125 29.2167 65.7125 29.4667 65.8125 29.8C65.9125 30.1333 65.8958 30.4667 65.7625 30.8C64.9625 32.1667 64.2958 33.5167 63.7625 34.85C63.2625 36.1833 62.9625 37.2167 62.8625 37.95C62.7958 38.65 62.8458 39.1167 63.0125 39.35C63.8458 39.85 65.3958 39.05 67.6625 36.95C69.9625 34.85 72.1125 32.3333 74.1125 29.4C74.3125 29.1 74.5625 28.9167 74.8625 28.85C75.1958 28.7833 75.5125 28.8333 75.8125 29C76.1125 29.1333 76.3125 29.35 76.4125 29.65C76.5458 29.95 76.5625 30.25 76.4625 30.55C76.1958 31.3167 75.9458 32.2167 75.7125 33.25C75.5125 34.25 75.4292 35.4 75.4625 36.7C75.5292 38 75.8292 38.95 76.3625 39.55C77.8625 41.05 79.6625 41.7667 81.7625 41.7H81.8625C84.1958 41.7 86.8458 41.0333 89.8125 39.7C92.8125 38.3667 95.4958 36.85 97.8625 35.15C100.263 33.4167 102.263 31.7 103.863 30C104.129 29.7333 104.446 29.6 104.813 29.6ZM145.689 31.2C146.055 31.2 146.372 31.3167 146.639 31.55C146.905 31.7833 147.039 32.0833 147.039 32.45C147.072 32.8167 146.955 33.1333 146.689 33.4C146.489 33.6333 146.205 33.9333 145.839 34.3C145.472 34.6667 144.789 35.2667 143.789 36.1C142.789 36.9333 141.772 37.7167 140.739 38.45C139.705 39.1833 138.439 39.9333 136.939 40.7C135.472 41.4333 134.022 42.0167 132.589 42.45C131.155 42.85 129.589 43.0333 127.889 43C126.222 42.9667 124.639 42.65 123.139 42.05C120.539 40.75 118.522 38.8333 117.089 36.3C117.089 36.2667 117.005 36.1333 116.839 35.9C116.705 35.6667 116.572 35.4833 116.439 35.35C116.339 35.1833 116.189 35 115.989 34.8C115.822 34.6 115.622 34.45 115.389 34.35C115.189 34.25 114.972 34.2167 114.739 34.25C112.072 34.3167 108.305 37.2 103.439 42.9C103.005 43.4 102.489 43.5 101.889 43.2C101.255 42.9 101.022 42.4167 101.189 41.75L103.689 30.75C103.755 30.4167 103.939 30.15 104.239 29.95C104.572 29.75 104.905 29.7 105.239 29.8C105.605 29.8667 105.872 30.0667 106.039 30.4C106.239 30.7 106.305 31.0167 106.239 31.35L105.089 36.3C105.055 36.4667 105.122 36.6 105.289 36.7C105.455 36.7667 105.605 36.7333 105.739 36.6C109.439 33.1 112.555 31.4333 115.089 31.6C116.155 31.6667 117.055 32.1 117.789 32.9C118.355 33.5 118.855 34.15 119.289 34.85C120.422 36.9167 122.022 38.5 124.089 39.6C125.122 40.0333 126.205 40.2833 127.339 40.35C128.472 40.4167 129.539 40.3667 130.539 40.2C131.572 40 132.622 39.7 133.689 39.3C134.755 38.8667 135.722 38.4 136.589 37.9C137.489 37.4 138.372 36.85 139.239 36.25C140.139 35.65 140.889 35.1 141.489 34.6C142.089 34.1 142.672 33.6 143.239 33.1C143.805 32.6 144.172 32.25 144.339 32.05C144.539 31.85 144.689 31.7 144.789 31.6C145.022 31.3333 145.322 31.2 145.689 31.2ZM176.039 30.1C176.406 30.1 176.722 30.2333 176.989 30.5C177.256 30.7333 177.389 31.0333 177.389 31.4C177.389 31.7667 177.272 32.0833 177.039 32.35C176.639 32.75 176.122 33.25 175.489 33.85C174.856 34.4167 173.689 35.3667 171.989 36.7C170.322 38 168.656 39.1667 166.989 40.2C165.322 41.2 163.356 42.1 161.089 42.9C158.822 43.7 156.689 44.1 154.689 44.1C151.622 44.1333 148.872 43.2333 146.439 41.4C145.506 40.7333 144.839 39.85 144.439 38.75C144.039 37.65 143.856 36.6333 143.889 35.7C143.922 34.7667 144.089 33.7667 144.389 32.7C144.689 31.6333 144.922 30.8833 145.089 30.45C145.289 30.0167 145.456 29.6667 145.589 29.4C145.789 29.1 146.056 28.9 146.389 28.8C146.722 28.7 147.039 28.7333 147.339 28.9C147.672 29.0667 147.889 29.3167 147.989 29.65C148.122 29.9833 148.106 30.3 147.939 30.6C147.872 30.7667 147.756 31.0167 147.589 31.35C147.456 31.65 147.256 32.2 146.989 33C146.756 33.8 146.606 34.55 146.539 35.25C146.472 35.95 146.539 36.7 146.739 37.5C146.972 38.2667 147.389 38.8667 147.989 39.3C149.456 40.3667 151.089 41.0333 152.889 41.3C154.689 41.5333 156.406 41.45 158.039 41.05C159.706 40.65 161.406 40.0333 163.139 39.2C164.906 38.3333 166.439 37.45 167.739 36.55C169.072 35.65 170.339 34.7 171.539 33.7C172.772 32.7 173.639 31.9667 174.139 31.5C174.639 31 174.972 30.6667 175.139 30.5C175.406 30.2333 175.706 30.1 176.039 30.1ZM145.039 26.55C144.372 26.55 143.956 26.2167 143.789 25.55C143.622 24.8833 143.839 24.3833 144.439 24.05C145.372 23.5833 146.206 22.9667 146.939 22.2C147.206 21.9333 147.506 21.8 147.839 21.8C148.206 21.8 148.522 21.9333 148.789 22.2C149.056 22.4333 149.189 22.7333 149.189 23.1C149.222 23.4333 149.106 23.7333 148.839 24C147.906 24.9667 146.856 25.75 145.689 26.35C145.489 26.4833 145.272 26.55 145.039 26.55ZM207.502 30.5C207.869 30.5 208.185 30.6333 208.452 30.9C208.719 31.1333 208.852 31.4333 208.852 31.8C208.852 32.1333 208.735 32.4333 208.502 32.7C208.302 32.9 208.002 33.1833 207.602 33.55C207.202 33.8833 206.419 34.3833 205.252 35.05C204.085 35.7167 202.885 36.2167 201.652 36.55C200.419 36.8833 198.902 36.9667 197.102 36.8C195.335 36.6 193.585 36 191.852 35C191.352 34.7 190.802 34.6 190.202 34.7C189.602 34.7667 189.102 35.0167 188.702 35.45C187.002 37.1833 185.485 39.0333 184.152 41C184.052 41.1667 183.969 41.3333 183.902 41.5C183.235 44.3 182.169 47.6167 180.702 51.45C179.269 55.2833 177.235 60.3 174.602 66.5C174.402 67.0333 174.002 67.3 173.402 67.3C173.269 67.3 173.135 67.2833 173.002 67.25C172.669 67.1167 172.419 66.9 172.252 66.6C172.085 66.3 172.052 65.9833 172.152 65.65C173.685 59.45 175.119 54.45 176.452 50.65C177.785 46.85 179.419 43.4333 181.352 40.4C181.452 40.2333 181.535 40.05 181.602 39.85C181.869 38.55 182.052 37.2333 182.152 35.9C182.152 35.7 182.085 35.6 181.952 35.6C181.819 35.6 181.702 35.6833 181.602 35.85C179.502 39.8167 177.452 42 175.452 42.4C173.985 42.6667 172.785 42.2167 171.852 41.05C171.119 40.1833 170.902 39.2 171.202 38.1C171.602 36.1667 172.902 33.8833 175.102 31.25C177.269 28.6167 179.385 26.8167 181.452 25.85C181.785 25.6833 182.119 25.6667 182.452 25.8C182.785 25.9 183.019 26.1167 183.152 26.45C183.319 26.7833 183.335 27.1167 183.202 27.45C183.102 27.7833 182.885 28.0333 182.552 28.2C178.619 30.5667 175.752 33.8667 173.952 38.1C173.752 38.5 173.702 38.9 173.802 39.3C174.169 39.7333 174.535 39.9 174.902 39.8C175.869 39.6333 176.985 38.5 178.252 36.4C179.519 34.3 180.569 32.1 181.402 29.8C181.602 29.2333 182.019 28.95 182.652 28.95C183.219 28.95 183.619 29.2333 183.852 29.8C184.185 30.6 184.435 31.4333 184.602 32.3C184.669 32.9333 185.002 33.35 185.602 33.55C186.235 33.75 186.785 33.6333 187.252 33.2C187.585 32.8667 187.935 32.5333 188.302 32.2C188.802 31.7333 189.385 31.4833 190.052 31.45C190.752 31.3833 191.385 31.55 191.952 31.95C194.185 33.65 196.685 34.4 199.452 34.2C202.252 34 204.635 32.9 206.602 30.9C206.835 30.6333 207.135 30.5 207.502 30.5ZM249.051 29.6C249.417 29.5667 249.734 29.6833 250.001 29.95C250.267 30.1833 250.401 30.4833 250.401 30.85C250.401 31.2167 250.284 31.5333 250.051 31.8C248.251 33.6667 246.067 35.5333 243.501 37.4C240.967 39.2333 238.084 40.85 234.851 42.25C231.617 43.6167 228.701 44.3 226.101 44.3H226.001C223.101 44.4 220.667 43.4 218.701 41.3C217.867 40.3667 217.367 39.2833 217.201 38.05C217.134 37.5833 216.867 37.2833 216.401 37.15C215.967 37.0167 215.584 37.1167 215.251 37.45C211.284 41.5833 208.167 42.9667 205.901 41.6C205.101 41.1333 204.634 40.3833 204.501 39.35C204.334 38.2833 204.467 37.1 204.901 35.8C205.334 34.5 205.784 33.3667 206.251 32.4C206.684 31.4333 207.167 30.4667 207.701 29.5C207.901 29.2 208.167 29.0167 208.501 28.95C208.834 28.85 209.151 28.8833 209.451 29.05C209.751 29.2167 209.951 29.4667 210.051 29.8C210.151 30.1333 210.134 30.4667 210.001 30.8C209.201 32.1667 208.534 33.5167 208.001 34.85C207.501 36.1833 207.201 37.2167 207.101 37.95C207.034 38.65 207.084 39.1167 207.251 39.35C208.084 39.85 209.634 39.05 211.901 36.95C214.201 34.85 216.351 32.3333 218.351 29.4C218.551 29.1 218.801 28.9167 219.101 28.85C219.434 28.7833 219.751 28.8333 220.051 29C220.351 29.1333 220.551 29.35 220.651 29.65C220.784 29.95 220.801 30.25 220.701 30.55C220.434 31.3167 220.184 32.2167 219.951 33.25C219.751 34.25 219.667 35.4 219.701 36.7C219.767 38 220.067 38.95 220.601 39.55C222.101 41.05 223.901 41.7667 226.001 41.7H226.101C228.434 41.7 231.084 41.0333 234.051 39.7C237.051 38.3667 239.734 36.85 242.101 35.15C244.501 33.4167 246.501 31.7 248.101 30C248.367 29.7333 248.684 29.6 249.051 29.6ZM287.397 30.65C287.764 30.6833 288.064 30.85 288.297 31.15C288.53 31.4167 288.63 31.7333 288.597 32.1C288.564 32.4667 288.397 32.7667 288.097 33C287.597 33.4 286.98 33.8667 286.247 34.4C285.514 34.9333 284.097 35.8333 281.997 37.1C279.897 38.3333 277.797 39.4167 275.697 40.35C273.63 41.2833 271.13 42.1333 268.197 42.9C265.264 43.6667 262.464 44.05 259.797 44.05C256.397 44.0833 253.13 43.4667 249.997 42.2C248.997 41.8 248.147 41.3333 247.447 40.8C246.78 40.2333 246.28 39.7 245.947 39.2C245.614 38.6667 245.38 38.1167 245.247 37.55C245.08 36.95 245.014 36.4333 245.047 36C245.047 35.5667 245.097 35.1333 245.197 34.7C245.564 33.1333 246.43 31.5833 247.797 30.05C249.164 28.5167 250.68 27.3167 252.347 26.45C254.047 25.5833 255.564 25.1833 256.897 25.25C257.797 25.25 258.564 25.5667 259.197 26.2C259.864 26.8333 260.23 27.6167 260.297 28.55C260.464 30.15 259.564 31.6 257.597 32.9C254.764 34.6667 251.664 35.45 248.297 35.25C248.13 35.2167 247.98 35.25 247.847 35.35C247.714 35.45 247.664 35.5833 247.697 35.75C247.464 37.45 248.564 38.7833 250.997 39.75C253.164 40.65 255.497 41.1833 257.997 41.35C260.497 41.4833 262.83 41.35 264.997 40.95C267.164 40.55 269.38 39.9333 271.647 39.1C273.914 38.2667 275.847 37.4333 277.447 36.6C279.08 35.7333 280.647 34.8333 282.147 33.9C283.68 32.9333 284.714 32.25 285.247 31.85C285.814 31.45 286.214 31.15 286.447 30.95C286.747 30.7167 287.064 30.6167 287.397 30.65ZM249.447 32.2C249.014 32.8 249.197 33.0667 249.997 33C251.397 32.9 253.18 32.3 255.347 31.2C255.68 31 255.964 30.8333 256.197 30.7C257.23 30 257.714 29.3667 257.647 28.8C257.614 28.4333 257.53 28.2 257.397 28.1C257.264 27.9667 257.047 27.8833 256.747 27.85C255.68 27.7833 254.43 28.1667 252.997 29C251.597 29.8333 250.414 30.9 249.447 32.2ZM339.789 30.85C340.056 31.0833 340.189 31.3833 340.189 31.75C340.223 32.1167 340.106 32.4167 339.839 32.65C337.573 35.05 334.789 36.4333 331.489 36.8C328.223 37.1333 325.223 36.3833 322.489 34.55C321.889 34.15 321.323 34.2 320.789 34.7C318.823 36.6333 316.989 38.6667 315.289 40.8C315.123 41 315.023 41.2167 314.989 41.45C314.089 46.8167 312.723 52.0833 310.889 57.25C309.089 62.45 307.389 65.5833 305.789 66.65C305.323 66.9833 304.823 67.15 304.289 67.15C303.589 67.15 303.006 66.9 302.539 66.4C301.439 65.2333 300.956 63.85 301.089 62.25C301.156 59.5833 302.256 56.25 304.389 52.25C306.523 48.2833 309.173 44.3 312.339 40.3C312.506 40.0667 312.606 39.8167 312.639 39.55C312.873 38.0833 313.023 36.75 313.089 35.55C310.956 39.6833 308.856 41.9667 306.789 42.4C305.323 42.6667 304.123 42.2167 303.189 41.05C302.756 40.5833 302.489 39.9667 302.389 39.2C302.289 38.4 302.323 37.6167 302.489 36.85C302.623 36.05 302.856 35.25 303.189 34.45C304.123 31.95 305.656 29.8833 307.789 28.25C309.923 26.6167 312.323 25.6833 314.989 25.45C315.356 25.4167 315.673 25.5167 315.939 25.75C316.239 25.9833 316.389 26.2833 316.389 26.65C316.423 27.0167 316.323 27.35 316.089 27.65C315.856 27.9167 315.556 28.05 315.189 28.05C313.023 28.2833 311.073 29.0667 309.339 30.4C307.639 31.7 306.406 33.35 305.639 35.35C304.973 36.6167 304.806 37.9333 305.139 39.3C305.539 39.7333 305.923 39.9 306.289 39.8C307.256 39.6333 308.373 38.5 309.639 36.4C310.906 34.3 311.956 32.1 312.789 29.8C312.989 29.2333 313.389 28.95 313.989 28.95C314.589 28.95 315.006 29.2167 315.239 29.75C315.573 30.7833 315.739 31.85 315.739 32.95C315.739 33.2833 315.773 33.5833 315.839 33.85C315.906 34.1167 316.006 34.3667 316.139 34.6C316.306 34.8333 316.539 34.8833 316.839 34.75C317.173 34.6167 317.573 34.3 318.039 33.8C318.239 33.5667 318.823 32.9833 319.789 32.05C320.256 31.6167 320.806 31.3833 321.439 31.35C322.106 31.3167 322.706 31.5 323.239 31.9C325.439 33.6667 327.939 34.4667 330.739 34.3C333.573 34.1 335.973 32.9667 337.939 30.9C338.173 30.6333 338.473 30.5 338.839 30.5C339.206 30.4667 339.523 30.5833 339.789 30.85ZM306.489 61.35C307.589 59.15 308.806 56.05 310.139 52.05C311.506 48.0833 311.973 46.0167 311.539 45.85C311.206 45.7167 310.406 46.75 309.139 48.95C307.906 51.15 306.706 53.6333 305.539 56.4C304.373 59.1667 303.773 61.1333 303.739 62.3C303.706 63.6333 303.906 64.3667 304.339 64.5C304.606 64.5667 304.839 64.4333 305.039 64.1C305.273 63.7667 305.656 63.05 306.189 61.95C306.323 61.7167 306.423 61.5167 306.489 61.35ZM380.148 30.45C380.515 30.45 380.815 30.5833 381.048 30.85C381.315 31.1167 381.448 31.4333 381.448 31.8C381.448 32.1333 381.315 32.4333 381.048 32.7C377.815 35.8333 373.832 38.25 369.098 39.95C364.365 41.6167 360.032 42.45 356.098 42.45C354.198 42.55 352.365 42.2 350.598 41.4C349.832 40.9667 349.215 40.4833 348.748 39.95C348.282 39.4167 347.982 38.85 347.848 38.25C347.715 37.6167 347.632 37.05 347.598 36.55C347.598 36.05 347.715 35.4833 347.948 34.85C348.182 34.1833 348.365 33.6833 348.498 33.35C348.665 32.9833 348.882 32.5333 349.148 32C349.248 31.8 349.165 31.6833 348.898 31.65C348.765 31.65 348.582 31.7167 348.348 31.85C346.515 32.85 344.548 33.3 342.448 33.2C341.515 33.2333 340.598 33.05 339.698 32.65C339.365 32.75 339.032 32.7167 338.698 32.55C338.165 32.2833 337.932 31.85 337.998 31.25C337.498 30.65 337.148 29.9667 336.948 29.2C336.548 27.8333 336.582 26.4833 337.048 25.15C337.515 23.8167 338.332 22.7167 339.498 21.85C340.898 21.0167 341.998 20.9833 342.798 21.75C343.898 22.7833 343.532 25.3667 341.698 29.5C341.632 29.6667 341.682 29.9 341.848 30.2C342.015 30.4667 342.215 30.6 342.448 30.6C344.382 30.6 346.198 30.1167 347.898 29.15C348.398 28.85 348.798 28.65 349.098 28.55C349.398 28.4167 349.798 28.3667 350.298 28.4C350.798 28.4 351.265 28.5667 351.698 28.9C352.132 29.2333 352.365 29.6667 352.398 30.2C352.432 30.7333 352.365 31.2 352.198 31.6C352.065 31.9667 351.832 32.4833 351.498 33.15C350.665 34.6833 350.248 35.9167 350.248 36.85C350.282 37.75 350.848 38.5167 351.948 39.15C352.615 39.55 353.698 39.7833 355.198 39.85C356.698 39.9167 358.465 39.7833 360.498 39.45C362.532 39.1167 364.632 38.6167 366.798 37.95C368.965 37.2833 371.165 36.3333 373.398 35.1C375.632 33.8333 377.565 32.4 379.198 30.8C379.465 30.5667 379.782 30.45 380.148 30.45ZM339.398 28.1C339.998 26.8333 340.465 25.5167 340.798 24.15C339.565 25.2167 339.098 26.5333 339.398 28.1ZM420.014 30.65C420.381 30.6833 420.681 30.85 420.914 31.15C421.147 31.4167 421.247 31.7333 421.214 32.1C421.181 32.4667 421.014 32.7667 420.714 33C420.214 33.4 419.597 33.8667 418.864 34.4C418.131 34.9333 416.714 35.8333 414.614 37.1C412.514 38.3333 410.414 39.4167 408.314 40.35C406.247 41.2833 403.747 42.1333 400.814 42.9C397.881 43.6667 395.081 44.05 392.414 44.05C389.014 44.0833 385.747 43.4667 382.614 42.2C381.614 41.8 380.764 41.3333 380.064 40.8C379.397 40.2333 378.897 39.7 378.564 39.2C378.231 38.6667 377.997 38.1167 377.864 37.55C377.697 36.95 377.631 36.4333 377.664 36C377.664 35.5667 377.714 35.1333 377.814 34.7C378.181 33.1333 379.047 31.5833 380.414 30.05C381.781 28.5167 383.297 27.3167 384.964 26.45C386.664 25.5833 388.181 25.1833 389.514 25.25C390.414 25.25 391.181 25.5667 391.814 26.2C392.481 26.8333 392.847 27.6167 392.914 28.55C393.081 30.15 392.181 31.6 390.214 32.9C387.381 34.6667 384.281 35.45 380.914 35.25C380.747 35.2167 380.597 35.25 380.464 35.35C380.331 35.45 380.281 35.5833 380.314 35.75C380.081 37.45 381.181 38.7833 383.614 39.75C385.781 40.65 388.114 41.1833 390.614 41.35C393.114 41.4833 395.447 41.35 397.614 40.95C399.781 40.55 401.997 39.9333 404.264 39.1C406.531 38.2667 408.464 37.4333 410.064 36.6C411.697 35.7333 413.264 34.8333 414.764 33.9C416.297 32.9333 417.331 32.25 417.864 31.85C418.431 31.45 418.831 31.15 419.064 30.95C419.364 30.7167 419.681 30.6167 420.014 30.65ZM382.064 32.2C381.631 32.8 381.814 33.0667 382.614 33C384.014 32.9 385.797 32.3 387.964 31.2C388.297 31 388.581 30.8333 388.814 30.7C389.847 30 390.331 29.3667 390.264 28.8C390.231 28.4333 390.147 28.2 390.014 28.1C389.881 27.9667 389.664 27.8833 389.364 27.85C388.297 27.7833 387.047 28.1667 385.614 29C384.214 29.8333 383.031 30.9 382.064 32.2ZM459.663 30.65C460.029 30.6833 460.329 30.85 460.563 31.15C460.796 31.4167 460.896 31.7333 460.863 32.1C460.829 32.4667 460.663 32.7667 460.363 33C459.863 33.4 459.246 33.8667 458.513 34.4C457.779 34.9333 456.363 35.8333 454.263 37.1C452.163 38.3333 450.063 39.4167 447.962 40.35C445.896 41.2833 443.396 42.1333 440.463 42.9C437.529 43.6667 434.729 44.05 432.063 44.05C428.663 44.0833 425.396 43.4667 422.263 42.2C421.263 41.8 420.413 41.3333 419.713 40.8C419.046 40.2333 418.546 39.7 418.212 39.2C417.879 38.6667 417.646 38.1167 417.512 37.55C417.346 36.95 417.279 36.4333 417.312 36C417.312 35.5667 417.362 35.1333 417.462 34.7C417.829 33.1333 418.696 31.5833 420.063 30.05C421.429 28.5167 422.946 27.3167 424.613 26.45C426.313 25.5833 427.829 25.1833 429.163 25.25C430.063 25.25 430.829 25.5667 431.463 26.2C432.129 26.8333 432.496 27.6167 432.563 28.55C432.729 30.15 431.829 31.6 429.863 32.9C427.029 34.6667 423.929 35.45 420.563 35.25C420.396 35.2167 420.246 35.25 420.113 35.35C419.979 35.45 419.929 35.5833 419.963 35.75C419.729 37.45 420.829 38.7833 423.263 39.75C425.429 40.65 427.763 41.1833 430.263 41.35C432.763 41.4833 435.096 41.35 437.263 40.95C439.429 40.55 441.646 39.9333 443.913 39.1C446.179 38.2667 448.113 37.4333 449.713 36.6C451.346 35.7333 452.913 34.8333 454.413 33.9C455.946 32.9333 456.979 32.25 457.513 31.85C458.079 31.45 458.479 31.15 458.713 30.95C459.013 30.7167 459.329 30.6167 459.663 30.65ZM421.713 32.2C421.279 32.8 421.463 33.0667 422.263 33C423.663 32.9 425.446 32.3 427.613 31.2C427.946 31 428.229 30.8333 428.463 30.7C429.496 30 429.979 29.3667 429.913 28.8C429.879 28.4333 429.796 28.2 429.663 28.1C429.529 27.9667 429.313 27.8833 429.013 27.85C427.946 27.7833 426.696 28.1667 425.263 29C423.863 29.8333 422.679 30.9 421.713 32.2ZM499.052 31.75C499.418 31.75 499.718 31.8833 499.952 32.15C500.218 32.3833 500.335 32.6833 500.302 33.05C500.302 33.4167 500.168 33.7333 499.902 34C497.735 36.0667 495.018 37.8167 491.752 39.25C488.518 40.6833 485.335 41.6667 482.202 42.2C479.068 42.7333 476.118 42.9833 473.352 42.95C470.585 42.8833 468.418 42.5167 466.852 41.85C464.885 41.0833 463.885 39.95 463.852 38.45C463.818 38.35 463.685 38.3833 463.452 38.55C461.818 40.1167 460.368 41.85 459.102 43.75C458.702 44.2833 458.185 44.4333 457.552 44.2C456.918 43.9667 456.635 43.5167 456.702 42.85C457.035 39.4167 457.368 36.3 457.702 33.5C458.002 30.6667 458.402 27.6333 458.902 24.4C459.402 21.1667 459.952 18.3167 460.552 15.85C461.185 13.3833 461.885 11.0667 462.652 8.9C463.452 6.73333 464.368 5.01666 465.402 3.75C466.435 2.45 467.568 1.65 468.802 1.35C469.468 1.08333 470.152 1.05 470.852 1.25C471.585 1.41667 472.185 1.78333 472.652 2.35C473.018 2.88333 473.218 3.6 473.252 4.5C473.285 5.36666 473.168 6.35 472.902 7.45C472.668 8.51666 472.302 9.73333 471.802 11.1C471.335 12.4667 470.802 13.8167 470.202 15.15C469.602 16.4833 468.918 17.9 468.152 19.4C467.418 20.9 466.702 22.2833 466.002 23.55C465.335 24.7833 464.618 26.0667 463.852 27.4C463.118 28.7 462.485 29.7833 461.952 30.65C461.452 31.4833 460.952 32.3 460.452 33.1C460.452 33.1 460.435 33.1167 460.402 33.15C460.402 33.1833 460.385 33.2 460.352 33.2C460.218 34.3 460.085 35.4333 459.952 36.6C459.918 36.9333 460.052 37.1833 460.352 37.35C460.652 37.4833 460.918 37.4167 461.152 37.15C463.852 34.45 466.535 32.5 469.202 31.3C471.868 30.1 473.702 29.6667 474.702 30C475.368 30.2667 475.702 30.75 475.702 31.45C475.668 32.2833 474.852 32.8833 473.252 33.25C471.585 34.05 470.218 34.8167 469.152 35.55C468.085 36.2833 467.368 36.8667 467.002 37.3C466.668 37.7333 466.502 38.0833 466.502 38.35C466.502 38.7167 466.952 39.0833 467.852 39.45C469.252 40.0167 471.218 40.3167 473.752 40.35C476.285 40.35 478.985 40.1167 481.852 39.65C484.752 39.15 487.685 38.25 490.652 36.95C493.652 35.6167 496.135 34 498.102 32.1C498.368 31.8333 498.685 31.7167 499.052 31.75ZM469.402 3.9C466.402 4.63333 463.868 11.0833 461.802 23.25C461.735 23.5833 461.868 23.8167 462.202 23.95C462.535 24.05 462.785 23.95 462.952 23.65C465.852 18.45 467.968 14.05 469.302 10.45C470.668 6.81667 471.085 4.63333 470.552 3.9C470.485 3.83333 470.352 3.8 470.152 3.8C469.885 3.8 469.635 3.83333 469.402 3.9ZM555.209 31.6C555.576 31.6 555.876 31.7333 556.109 32C556.343 32.2667 556.443 32.5833 556.409 32.95C556.409 33.3167 556.276 33.6167 556.009 33.85C555.609 34.2167 555.126 34.6333 554.559 35.1C553.993 35.5333 552.909 36.3 551.309 37.4C549.709 38.4667 548.143 39.3833 546.609 40.15C545.109 40.8833 543.359 41.5 541.359 42C539.393 42.5 537.593 42.6333 535.959 42.4C534.426 42.1333 533.026 41.5667 531.759 40.7C530.493 39.8 529.493 38.6833 528.759 37.35C528.193 36.3167 527.343 35.75 526.209 35.65C525.776 35.6167 525.293 35.7 524.759 35.9C524.226 36.1 523.543 36.4667 522.709 37C521.909 37.5 520.959 38.35 519.859 39.55C518.759 40.7167 517.609 42.1833 516.409 43.95C516.043 44.4833 515.543 44.6333 514.909 44.4C514.276 44.1667 513.993 43.7167 514.059 43.05C514.259 40.5167 514.759 37.2833 515.559 33.35C515.226 32.85 515.243 32.35 515.609 31.85L515.959 31.35C516.826 27.0833 517.843 22.9333 519.009 18.9C519.876 15.7333 520.743 12.9833 521.609 10.65C522.476 8.31666 523.193 6.58333 523.759 5.45C524.359 4.28333 524.959 3.33333 525.559 2.6C526.193 1.86666 526.626 1.43333 526.859 1.3C527.126 1.16666 527.409 1.05 527.709 0.949997C528.276 0.78333 528.826 0.799998 529.359 0.999999C529.893 1.16667 530.343 1.48333 530.709 1.95C531.376 2.75 531.726 3.83333 531.759 5.2C531.826 6.53333 531.643 7.95 531.209 9.45C530.809 10.95 530.193 12.6167 529.359 14.45C528.526 16.2833 527.659 18 526.759 19.6C525.859 21.2 524.859 22.8667 523.759 24.6C522.659 26.3333 521.726 27.75 520.959 28.85C520.193 29.95 519.443 31.0167 518.709 32.05C518.709 32.05 518.676 32.1 518.609 32.2L518.309 32.65C517.843 35.1167 517.576 36.5333 517.509 36.9C517.476 37.1333 517.559 37.3 517.759 37.4C517.993 37.5 518.193 37.4667 518.359 37.3C521.259 34.2667 523.943 32.85 526.409 33.05C527.376 33.1167 528.259 33.4167 529.059 33.95C529.893 34.4833 530.543 35.1833 531.009 36.05C531.576 37.05 532.326 37.8833 533.259 38.55C534.193 39.2167 535.226 39.6333 536.359 39.8C537.759 40 539.343 39.8667 541.109 39.4C542.909 38.9 544.493 38.3 545.859 37.6C547.226 36.8667 548.643 36 550.109 35C551.576 34 552.543 33.3 553.009 32.9C553.509 32.5 553.926 32.1667 554.259 31.9C554.526 31.6667 554.843 31.5667 555.209 31.6ZM528.459 3.45C527.826 3.45 526.709 5.25 525.109 8.85C523.543 12.4167 522.176 16.05 521.009 19.75C519.876 23.45 519.509 25.4167 519.909 25.65C520.076 25.75 520.409 25.4667 520.909 24.8C521.409 24.1333 521.976 23.2333 522.609 22.1C523.243 20.9333 523.909 19.6167 524.609 18.15C525.343 16.6833 526.009 15.2 526.609 13.7C527.243 12.1667 527.776 10.7 528.209 9.3C528.643 7.9 528.909 6.71666 529.009 5.75C529.109 4.75 528.993 4.03333 528.659 3.6C528.559 3.5 528.493 3.45 528.459 3.45ZM585.902 30.1C586.269 30.1 586.586 30.2333 586.852 30.5C587.119 30.7333 587.252 31.0333 587.252 31.4C587.252 31.7667 587.136 32.0833 586.902 32.35C586.502 32.75 585.986 33.25 585.352 33.85C584.719 34.4167 583.552 35.3667 581.852 36.7C580.186 38 578.519 39.1667 576.852 40.2C575.186 41.2 573.219 42.1 570.952 42.9C568.686 43.7 566.552 44.1 564.552 44.1C561.486 44.1333 558.736 43.2333 556.302 41.4C555.369 40.7333 554.702 39.85 554.302 38.75C553.902 37.65 553.719 36.6333 553.752 35.7C553.786 34.7667 553.952 33.7667 554.252 32.7C554.552 31.6333 554.786 30.8833 554.952 30.45C555.152 30.0167 555.319 29.6667 555.452 29.4C555.652 29.1 555.919 28.9 556.252 28.8C556.586 28.7 556.902 28.7333 557.202 28.9C557.536 29.0667 557.752 29.3167 557.852 29.65C557.986 29.9833 557.969 30.3 557.802 30.6C557.736 30.7667 557.619 31.0167 557.452 31.35C557.319 31.65 557.119 32.2 556.852 33C556.619 33.8 556.469 34.55 556.402 35.25C556.336 35.95 556.402 36.7 556.602 37.5C556.836 38.2667 557.252 38.8667 557.852 39.3C559.319 40.3667 560.952 41.0333 562.752 41.3C564.552 41.5333 566.269 41.45 567.902 41.05C569.569 40.65 571.269 40.0333 573.002 39.2C574.769 38.3333 576.302 37.45 577.602 36.55C578.936 35.65 580.202 34.7 581.402 33.7C582.636 32.7 583.502 31.9667 584.002 31.5C584.502 31 584.836 30.6667 585.002 30.5C585.269 30.2333 585.569 30.1 585.902 30.1ZM554.902 26.55C554.236 26.55 553.819 26.2167 553.652 25.55C553.486 24.8833 553.702 24.3833 554.302 24.05C555.236 23.5833 556.069 22.9667 556.802 22.2C557.069 21.9333 557.369 21.8 557.702 21.8C558.069 21.8 558.386 21.9333 558.652 22.2C558.919 22.4333 559.052 22.7333 559.052 23.1C559.086 23.4333 558.969 23.7333 558.702 24C557.769 24.9667 556.719 25.75 555.552 26.35C555.352 26.4833 555.136 26.55 554.902 26.55ZM629.954 32.15C630.321 32.15 630.621 32.2833 630.854 32.55C631.121 32.8167 631.254 33.1333 631.254 33.5C631.254 33.8333 631.121 34.1333 630.854 34.4C629.321 35.9 627.604 37.2667 625.704 38.5C623.804 39.7333 621.921 40.7333 620.054 41.5C618.221 42.2333 616.337 42.85 614.404 43.35C612.504 43.8167 610.787 44.0333 609.254 44C607.721 44 606.337 43.85 605.104 43.55C603.304 42.9167 601.737 41.9333 600.404 40.6C599.104 39.2333 598.171 37.65 597.604 35.85C597.504 35.55 597.287 35.3833 596.954 35.35C596.654 35.3167 596.421 35.4333 596.254 35.7C592.254 41.3667 588.937 44.2 586.304 44.2C586.137 44.2 585.971 44.1833 585.804 44.15C585.004 44.05 584.287 43.7667 583.654 43.3C583.054 42.8 582.621 42.1667 582.354 41.4C581.854 39.7333 581.854 37.9333 582.354 36C582.821 34.0667 583.487 32.5667 584.354 31.5C586.721 28.7667 589.054 27.7333 591.354 28.4C592.221 28.6667 592.971 29.15 593.604 29.85C594.271 30.5167 594.737 31.3 595.004 32.2C595.037 32.5333 594.937 32.85 594.704 33.15C594.504 33.45 594.237 33.6167 593.904 33.65C593.537 33.7167 593.204 33.65 592.904 33.45C592.637 33.2167 592.471 32.9333 592.404 32.6C592.037 31.7333 591.387 31.1667 590.454 30.9C589.287 30.6333 587.921 31.4 586.354 33.2C584.854 35.4333 584.337 37.8667 584.804 40.5C585.004 41.1667 585.454 41.5167 586.154 41.55C586.887 41.65 588.004 41.0167 589.504 39.65C591.037 38.2833 592.821 36.1 594.854 33.1C595.187 32.6 595.521 32.0833 595.854 31.55C596.221 30.95 596.371 30.3 596.304 29.6C596.171 27.4333 596.204 25.2667 596.404 23.1C596.704 19.6333 597.371 16.2333 598.404 12.9C599.471 9.56666 600.821 6.75 602.454 4.45C604.121 2.11666 605.854 0.833331 607.654 0.599998C608.654 0.433332 609.421 0.783331 609.954 1.65C610.654 2.78333 610.554 5.01666 609.654 8.35C608.754 11.65 607.404 15.2167 605.604 19.05C603.837 22.85 601.904 26.5333 599.804 30.1C599.371 30.8333 599.237 31.6167 599.404 32.45C600.371 37.1167 602.537 39.9833 605.904 41.05C606.904 41.2833 608.037 41.4167 609.304 41.45C610.604 41.45 612.104 41.2333 613.804 40.8C615.537 40.3667 617.237 39.8167 618.904 39.15C620.604 38.4833 622.354 37.5667 624.154 36.4C625.954 35.2333 627.587 33.9333 629.054 32.5C629.287 32.2667 629.587 32.15 629.954 32.15ZM599.004 23.35C598.937 24.25 599.004 24.7 599.204 24.7C599.337 24.7 599.504 24.5167 599.704 24.15C604.671 15.35 607.387 8.83333 607.854 4.6C607.887 4.23333 607.754 3.96667 607.454 3.8C607.154 3.63333 606.871 3.65 606.604 3.85C604.937 5.05 603.354 7.5 601.854 11.2C600.354 14.9 599.404 18.95 599.004 23.35ZM670.112 30.65C670.478 30.6833 670.778 30.85 671.012 31.15C671.245 31.4167 671.345 31.7333 671.312 32.1C671.278 32.4667 671.112 32.7667 670.812 33C670.312 33.4 669.695 33.8667 668.962 34.4C668.228 34.9333 666.812 35.8333 664.712 37.1C662.612 38.3333 660.512 39.4167 658.412 40.35C656.345 41.2833 653.845 42.1333 650.912 42.9C647.978 43.6667 645.178 44.05 642.512 44.05C639.112 44.0833 635.845 43.4667 632.712 42.2C631.712 41.8 630.862 41.3333 630.162 40.8C629.495 40.2333 628.995 39.7 628.662 39.2C628.328 38.6667 628.095 38.1167 627.962 37.55C627.795 36.95 627.728 36.4333 627.762 36C627.762 35.5667 627.812 35.1333 627.912 34.7C628.278 33.1333 629.145 31.5833 630.512 30.05C631.878 28.5167 633.395 27.3167 635.062 26.45C636.762 25.5833 638.278 25.1833 639.612 25.25C640.512 25.25 641.278 25.5667 641.912 26.2C642.578 26.8333 642.945 27.6167 643.012 28.55C643.178 30.15 642.278 31.6 640.312 32.9C637.478 34.6667 634.378 35.45 631.012 35.25C630.845 35.2167 630.695 35.25 630.562 35.35C630.428 35.45 630.378 35.5833 630.412 35.75C630.178 37.45 631.278 38.7833 633.712 39.75C635.878 40.65 638.212 41.1833 640.712 41.35C643.212 41.4833 645.545 41.35 647.712 40.95C649.878 40.55 652.095 39.9333 654.362 39.1C656.628 38.2667 658.562 37.4333 660.162 36.6C661.795 35.7333 663.362 34.8333 664.862 33.9C666.395 32.9333 667.428 32.25 667.962 31.85C668.528 31.45 668.928 31.15 669.162 30.95C669.462 30.7167 669.778 30.6167 670.112 30.65ZM632.162 32.2C631.728 32.8 631.912 33.0667 632.712 33C634.112 32.9 635.895 32.3 638.062 31.2C638.395 31 638.678 30.8333 638.912 30.7C639.945 30 640.428 29.3667 640.362 28.8C640.328 28.4333 640.245 28.2 640.112 28.1C639.978 27.9667 639.762 27.8833 639.462 27.85C638.395 27.7833 637.145 28.1667 635.712 29C634.312 29.8333 633.128 30.9 632.162 32.2ZM708.78 31.45C709.147 31.45 709.447 31.5833 709.68 31.85C709.913 32.1167 710.013 32.4333 709.98 32.8C709.98 33.1667 709.847 33.4667 709.58 33.7C709.28 33.9667 708.88 34.3167 708.38 34.75C707.913 35.15 707.047 35.8167 705.78 36.75C704.513 37.6833 703.23 38.5333 701.93 39.3C700.63 40.0667 699.097 40.8333 697.33 41.6C695.563 42.3333 693.863 42.85 692.23 43.15C690.597 43.45 688.88 43.4833 687.08 43.25C685.28 42.9833 683.63 42.3667 682.13 41.4C680.73 40.5 679.613 39.3333 678.78 37.9C678.547 37.5 678.18 37.2833 677.68 37.25C677.213 37.2167 676.847 37.4 676.58 37.8C675.413 39.6 674.13 41.1167 672.73 42.35C671.363 43.5833 670.097 44.2167 668.93 44.25H668.88C668.28 44.2167 667.73 44.0333 667.23 43.7C666.697 43.3333 666.313 42.8667 666.08 42.3C665.08 39.8 665.23 37.3667 666.53 35C667.63 32.7 669.163 30.75 671.13 29.15C673.13 27.5167 675.38 26.4 677.88 25.8C678.38 25.6667 678.797 25.7833 679.13 26.15C679.497 26.5167 679.597 26.95 679.43 27.45C679.297 27.9167 678.98 28.2167 678.48 28.35C676.38 28.85 674.497 29.7833 672.83 31.15C671.163 32.4833 669.863 34.1333 668.93 36.1C667.997 37.7 667.83 39.3667 668.43 41.1C668.63 41.4333 668.78 41.6 668.88 41.6C669.447 41.9667 670.547 40.9333 672.18 38.5C673.813 36.0667 675.28 33.4333 676.58 30.6C676.847 30 677.313 29.75 677.98 29.85C678.613 29.95 678.98 30.3167 679.08 30.95C679.113 31.1167 679.147 31.35 679.18 31.65C679.247 31.9167 679.397 32.4333 679.63 33.2C679.863 33.9333 680.13 34.6333 680.43 35.3C680.73 35.9667 681.163 36.6833 681.73 37.45C682.297 38.1833 682.913 38.7667 683.58 39.2C684.847 40.0333 686.263 40.5333 687.83 40.7C689.43 40.8667 690.947 40.7833 692.38 40.45C693.847 40.1167 695.38 39.6 696.98 38.9C698.58 38.1667 699.963 37.4333 701.13 36.7C702.297 35.9667 703.447 35.1833 704.58 34.35C705.713 33.5167 706.48 32.9333 706.88 32.6C707.313 32.2333 707.63 31.95 707.83 31.75C708.097 31.5167 708.413 31.4167 708.78 31.45ZM755.734 30.35C756.101 30.35 756.401 30.4833 756.634 30.75C756.868 31.0167 756.968 31.3333 756.934 31.7C756.934 32.0667 756.801 32.3667 756.534 32.6C752.901 35.7 748.751 37.8 744.084 38.9C739.418 40 734.751 40 730.084 38.9C729.084 38.6333 728.084 38.3 727.084 37.9C726.584 37.6333 726.184 37.7167 725.884 38.15C725.684 38.35 725.468 38.6167 725.234 38.95C725.034 39.25 724.901 39.45 724.834 39.55C722.001 42.8833 719.501 43.9667 717.334 42.8C717.001 42.6333 716.718 42.4 716.484 42.1C716.084 41.7333 715.601 41.55 715.034 41.55C714.501 41.5167 714.034 41.6833 713.634 42.05C713.168 42.45 712.651 42.7667 712.084 43C711.584 43.2333 711.068 43.35 710.534 43.35C709.934 43.35 709.368 43.2167 708.834 42.95C707.768 42.45 707.051 41.6167 706.684 40.45C706.451 39.85 706.334 39.1667 706.334 38.4C706.301 37.6 706.368 36.8167 706.534 36.05C706.701 35.25 706.884 34.5 707.084 33.8C707.251 33.1 707.468 32.4167 707.734 31.75C708.001 31.05 708.201 30.55 708.334 30.25C708.468 29.95 708.601 29.6833 708.734 29.45C708.901 29.1167 709.151 28.9 709.484 28.8C709.818 28.6667 710.151 28.6833 710.484 28.85C710.818 28.9833 711.034 29.2333 711.134 29.6C711.268 29.9333 711.251 30.2667 711.084 30.6C710.451 31.9 709.868 33.4667 709.334 35.3C708.834 37.1333 708.768 38.5667 709.134 39.6C709.268 40.0667 709.551 40.4 709.984 40.6C710.351 40.7667 710.718 40.7667 711.084 40.6C711.984 40.2 712.934 39.1833 713.934 37.55C714.934 35.9167 715.734 34.3 716.334 32.7C716.468 32.3667 716.684 32.1333 716.984 32C717.318 31.8333 717.651 31.8167 717.984 31.95C718.351 32.05 718.601 32.2667 718.734 32.6C718.901 32.9333 718.918 33.2667 718.784 33.6C718.518 34.4667 718.301 35.3833 718.134 36.35C717.968 37.2833 717.901 38.1667 717.934 39C718.001 39.8 718.218 40.2833 718.584 40.45C719.018 40.7167 719.651 40.5667 720.484 40C721.484 39.3 722.334 38.4833 723.034 37.55C723.701 36.75 723.751 35.9333 723.184 35.1C722.851 34.6333 722.634 34.1 722.534 33.5C722.334 31.6333 723.734 29.9667 726.734 28.5C727.134 28.2333 727.568 28.15 728.034 28.25C728.501 28.3167 728.868 28.5167 729.134 28.85C729.768 29.6833 729.634 31.15 728.734 33.25C728.468 33.85 728.468 34.45 728.734 35.05C729.034 35.6167 729.501 35.9833 730.134 36.15C730.334 36.2167 730.534 36.2667 730.734 36.3C734.934 37.3667 739.151 37.4 743.384 36.4C747.651 35.4 751.451 33.5 754.784 30.7C755.051 30.4333 755.368 30.3167 755.734 30.35ZM725.534 33.85C725.901 33.1167 726.234 32.3667 726.534 31.6C725.568 32.2333 725.118 32.7667 725.184 33.2C725.218 33.4667 725.334 33.6833 725.534 33.85ZM794.473 31.45C794.84 31.45 795.14 31.5833 795.373 31.85C795.607 32.1167 795.707 32.4333 795.673 32.8C795.673 33.1667 795.54 33.4667 795.273 33.7C794.973 33.9667 794.573 34.3167 794.073 34.75C793.607 35.15 792.74 35.8167 791.473 36.75C790.207 37.6833 788.923 38.5333 787.623 39.3C786.323 40.0667 784.79 40.8333 783.023 41.6C781.257 42.3333 779.557 42.85 777.923 43.15C776.29 43.45 774.573 43.4833 772.773 43.25C770.973 42.9833 769.323 42.3667 767.823 41.4C766.423 40.5 765.307 39.3333 764.473 37.9C764.24 37.5 763.873 37.2833 763.373 37.25C762.907 37.2167 762.54 37.4 762.273 37.8C761.107 39.6 759.823 41.1167 758.423 42.35C757.057 43.5833 755.79 44.2167 754.623 44.25H754.573C753.973 44.2167 753.423 44.0333 752.923 43.7C752.39 43.3333 752.007 42.8667 751.773 42.3C750.773 39.8 750.923 37.3667 752.223 35C753.323 32.7 754.857 30.75 756.823 29.15C758.823 27.5167 761.073 26.4 763.573 25.8C764.073 25.6667 764.49 25.7833 764.823 26.15C765.19 26.5167 765.29 26.95 765.123 27.45C764.99 27.9167 764.673 28.2167 764.173 28.35C762.073 28.85 760.19 29.7833 758.523 31.15C756.857 32.4833 755.557 34.1333 754.623 36.1C753.69 37.7 753.523 39.3667 754.123 41.1C754.323 41.4333 754.473 41.6 754.573 41.6C755.14 41.9667 756.24 40.9333 757.873 38.5C759.507 36.0667 760.973 33.4333 762.273 30.6C762.54 30 763.007 29.75 763.673 29.85C764.307 29.95 764.673 30.3167 764.773 30.95C764.807 31.1167 764.84 31.35 764.873 31.65C764.94 31.9167 765.09 32.4333 765.323 33.2C765.557 33.9333 765.823 34.6333 766.123 35.3C766.423 35.9667 766.857 36.6833 767.423 37.45C767.99 38.1833 768.607 38.7667 769.273 39.2C770.54 40.0333 771.957 40.5333 773.523 40.7C775.123 40.8667 776.64 40.7833 778.073 40.45C779.54 40.1167 781.073 39.6 782.673 38.9C784.273 38.1667 785.657 37.4333 786.823 36.7C787.99 35.9667 789.14 35.1833 790.273 34.35C791.407 33.5167 792.173 32.9333 792.573 32.6C793.007 32.2333 793.323 31.95 793.523 31.75C793.79 31.5167 794.107 31.4167 794.473 31.45ZM832.164 29.85C832.53 29.85 832.83 29.9833 833.064 30.25C833.33 30.4833 833.464 30.7833 833.464 31.15C833.464 31.5167 833.347 31.8167 833.114 32.05C830.88 34.15 828.247 35.4167 825.214 35.85C822.214 36.25 819.364 35.75 816.664 34.35C816.097 34.05 815.497 33.95 814.864 34.05C814.264 34.1167 813.73 34.3833 813.264 34.85C811.697 36.45 810.13 38.2333 808.564 40.2C808.397 40.3667 808.297 40.5667 808.264 40.8C807.364 46.2 805.997 51.4833 804.164 56.65C802.364 61.85 800.664 64.9667 799.064 66C798.597 66.3333 798.097 66.5 797.564 66.5C796.864 66.5 796.28 66.25 795.814 65.75C794.714 64.5833 794.23 63.2 794.364 61.6C794.43 58.9333 795.53 55.6 797.664 51.6C799.797 47.6333 802.464 43.6333 805.664 39.6C805.797 39.4 805.88 39.1833 805.914 38.95C806.114 37.9833 806.23 37.0167 806.264 36.05C805.464 37.65 804.364 39.0333 802.964 40.2C801.564 41.3333 799.98 42.15 798.214 42.65C797.447 42.8833 796.664 42.9 795.864 42.7C795.097 42.4667 794.447 42.05 793.914 41.45C792.047 39.35 792.23 35.5167 794.464 29.95C794.597 29.6167 794.83 29.3833 795.164 29.25C795.53 29.0833 795.88 29.0667 796.214 29.2C796.547 29.3333 796.78 29.5667 796.914 29.9C797.047 30.2333 797.047 30.5667 796.914 30.9C796.147 32.8333 795.664 34.5 795.464 35.9C795.264 37.3 795.23 38.2333 795.364 38.7C795.497 39.1333 795.664 39.4833 795.864 39.75C796.364 40.2167 796.93 40.3333 797.564 40.1C798.864 39.7667 800.03 39.1667 801.064 38.3C802.13 37.4 802.93 36.5167 803.464 35.65C804.03 34.75 804.53 33.7667 804.964 32.7C805.397 31.6 805.664 30.85 805.764 30.45C805.864 30.0167 805.93 29.6667 805.964 29.4C806.097 28.7333 806.48 28.3667 807.114 28.3C807.78 28.2333 808.247 28.5167 808.514 29.15C808.847 30.15 809.014 31.1667 809.014 32.2C809.047 32.8 809.33 33.2167 809.864 33.45C810.43 33.65 810.93 33.5333 811.364 33.1C812.23 32.2 813.08 31.3667 813.914 30.6C814.447 30.1333 814.997 30.1167 815.564 30.55C817.23 31.75 818.897 32.5667 820.564 33C822.264 33.4 823.68 33.5167 824.814 33.35C825.947 33.1833 827.047 32.8333 828.114 32.3C829.214 31.7667 829.947 31.35 830.314 31.05C830.714 30.7167 831.014 30.45 831.214 30.25C831.48 29.9833 831.797 29.85 832.164 29.85ZM804.514 46.3C804.58 46.1 804.547 45.9833 804.414 45.95C804.314 45.9167 804.214 45.9833 804.114 46.15C802.014 49.25 800.314 52.1667 799.014 54.9C797.714 57.6667 797.047 59.9167 797.014 61.65C796.98 63.05 797.18 63.7833 797.614 63.85C797.847 63.8833 798.097 63.6833 798.364 63.25C798.664 62.8167 799.13 61.9667 799.764 60.7C801.864 56.0667 803.447 51.2667 804.514 46.3Z" fill="white"/>
</svg>
