<svg width="170" height="36" viewBox="0 0 170 36" fill="none" xmlns="http://www.w3.org/2000/svg">
<path d="M38.888 6.432C38.12 6.192 37.224 6.048 36.344 6.048C34.04 6.048 31.912 6.976 31.912 9.44C31.912 11.568 33.592 12.416 35.192 13.216C36.648 13.936 37.992 14.56 37.992 15.92C37.992 16.912 37.288 17.568 36.136 17.568C34.584 17.568 33.464 16.512 31.992 14.096L31.656 14.208L32.088 17.52C32.936 17.92 34.264 18.256 35.592 18.256C37.96 18.256 40.056 17.232 40.056 14.592C40.056 12.288 38.408 11.36 36.808 10.576C35.336 9.84 33.912 9.264 33.912 8.048C33.912 7.232 34.536 6.736 35.512 6.736C36.808 6.736 37.784 7.568 38.952 9.424L39.288 9.312L38.888 6.432ZM48.5714 15.584C48.1554 16.032 47.4034 16.32 46.5554 16.32C45.0994 16.32 43.9154 15.344 43.9154 12.976C43.9154 11.072 44.6994 10.096 45.6274 10.096C46.4274 10.096 47.2754 10.992 48.2834 12.32L48.4914 12.256L48.2354 9.872C47.7554 9.696 47.0034 9.472 45.9314 9.472C43.2114 9.472 41.2594 11.376 41.2594 14.064C41.2594 16.608 42.8594 18.256 45.1794 18.256C47.0354 18.256 48.3154 17.216 48.7794 15.712L48.5714 15.584ZM49.9864 18H53.5224V17.968C53.2184 17.088 53.0744 16.32 53.0744 14.832V12.304C53.3144 12 53.6024 11.808 53.8744 11.808C54.3224 11.808 55.1704 12.112 55.7784 12.544L55.9064 12.528L56.3384 9.472C54.6744 9.152 53.7784 10.256 52.9944 11.504V9.392L49.4744 10.368V10.4C50.1944 11.168 50.4664 11.936 50.4664 13.296V14.816C50.4664 16.368 50.2904 17.088 49.9864 17.968V18ZM61.54 18.256C63.908 18.256 66.18 16.528 66.18 13.872C66.18 11.2 63.892 9.472 61.54 9.472C59.188 9.472 56.9 11.232 56.9 13.872C56.884 16.512 59.172 18.256 61.54 18.256ZM61.556 17.632C60.324 17.632 59.7 16.112 59.7 13.872C59.7 11.632 60.308 10.096 61.54 10.096C62.772 10.096 63.38 11.632 63.38 13.872C63.38 16.112 62.788 17.632 61.556 17.632ZM67.2661 18H70.8181V17.968C70.5461 17.232 70.3541 16.576 70.3541 15.152V5.104L66.7541 6.08V6.128C67.4741 6.88 67.7461 7.664 67.7461 9.008V15.136C67.7461 16.608 67.5381 17.232 67.2661 17.968V18ZM72.1255 18H75.6775V17.968C75.4055 17.232 75.2135 16.576 75.2135 15.152V5.104L71.6135 6.08V6.128C72.3335 6.88 72.6055 7.664 72.6055 9.008V15.136C72.6055 16.608 72.3975 17.232 72.1255 17.968V18ZM85.2748 9.472C82.3148 9.472 80.6988 11.648 80.6988 14.256C80.6988 16.608 81.9468 18.256 83.9788 18.256C85.3228 18.256 86.2828 17.44 86.7788 16.576H86.8108V18.24L90.3788 17.472V17.44C89.7388 16.784 89.3708 16.256 89.3708 14.256V5.104L85.7708 6.096V6.128C86.4908 6.88 86.7628 7.664 86.7628 9.024V9.68C86.3628 9.552 85.8668 9.472 85.2748 9.472ZM83.4508 13.504C83.4508 11.52 83.9948 10.096 85.2588 10.096C86.0748 10.096 86.6348 10.688 86.7628 11.904V16C86.4268 16.432 85.8508 16.736 85.2588 16.736C84.1068 16.736 83.4508 15.68 83.4508 13.504ZM95.6806 18.256C98.0486 18.256 100.321 16.528 100.321 13.872C100.321 11.2 98.0326 9.472 95.6806 9.472C93.3286 9.472 91.0406 11.232 91.0406 13.872C91.0246 16.512 93.3126 18.256 95.6806 18.256ZM95.6966 17.632C94.4646 17.632 93.8406 16.112 93.8406 13.872C93.8406 11.632 94.4486 10.096 95.6806 10.096C96.9126 10.096 97.5206 11.632 97.5206 13.872C97.5206 16.112 96.9286 17.632 95.6966 17.632ZM112.367 12.336C112.959 10.896 113.311 10.416 113.903 9.776V9.728H111.295V9.776C111.759 10.16 112.127 11.264 111.567 12.64L110.671 14.896L109.663 12.272C109.279 11.232 109.391 10.16 109.695 9.776V9.728H105.711V9.776C106.063 10.144 106.271 10.576 106.735 11.792L105.455 14.928L104.495 12.272C104.111 11.232 104.191 10.208 104.543 9.776V9.728H100.479V9.776C100.911 10.272 101.199 10.832 101.759 12.32L103.919 18.112H104.847L107.071 12.656L109.151 18.112H110.063L112.367 12.336ZM114.752 18H118.304V17.968C118 17.088 117.856 16.32 117.856 14.832V11.856C118.208 11.36 118.8 11.008 119.488 11.008C120.336 11.008 120.688 11.52 120.688 12.208V14.848C120.688 16.32 120.544 17.088 120.224 17.968V18H123.76V17.968C123.44 17.088 123.296 16.336 123.296 14.816V11.84C123.296 10.384 122.32 9.472 120.784 9.472C119.296 9.472 118.304 10.368 117.856 11.104L117.776 11.088V9.392L114.256 10.368V10.4C114.976 11.168 115.248 11.936 115.248 13.296V14.816C115.248 16.368 115.072 17.088 114.752 17.968V18Z" fill="white"/>
<path d="M35.14 30.982C34.852 30.451 34.78 30.163 34.78 29.452V24.736L35.815 24.772C36.193 24.79 36.751 25.771 37.192 26.374L37.345 26.311L37.003 24.412H31.621L31.27 26.311L31.423 26.374C31.846 25.771 32.449 24.79 32.8 24.772L33.835 24.736V29.452C33.835 30.154 33.763 30.451 33.475 30.982V31H35.14V30.982ZM44.3322 31.135C46.0512 31.135 47.7162 29.632 47.7162 27.715C47.7162 25.798 46.0512 24.277 44.3322 24.277C42.6132 24.277 40.9662 25.798 40.9662 27.715C40.9662 29.632 42.6132 31.135 44.3322 31.135ZM44.3322 30.775C42.9012 30.775 42.0372 29.443 42.0372 27.715C42.0372 25.987 42.9012 24.637 44.3322 24.637C45.7632 24.637 46.6362 25.978 46.6362 27.715C46.6362 29.452 45.7632 30.775 44.3322 30.775ZM56.813 31H59.27C61.538 31 62.816 29.785 62.816 27.661C62.816 25.519 61.484 24.376 59.297 24.376C58.1 24.376 57.947 24.412 56.813 24.412V24.43C57.11 24.916 57.182 25.177 57.182 25.816V29.596C57.182 30.235 57.11 30.496 56.813 30.982V31ZM61.736 27.661C61.736 29.542 61.043 30.604 59.198 30.649L58.127 30.667V24.727H59.216C60.899 24.727 61.736 25.6 61.736 27.661ZM66.7109 31H68.3939L68.4029 30.982C68.0969 30.442 68.0249 30.145 68.0249 29.425V25.987C68.0249 25.267 68.0969 24.97 68.3939 24.43V24.412H66.7109V24.43C67.0169 24.97 67.0799 25.267 67.0799 25.987V29.425C67.0799 30.145 67.0169 30.442 66.7109 30.982V31ZM76.202 24.529C75.797 24.385 75.275 24.277 74.753 24.277C73.655 24.277 72.683 24.763 72.683 25.978C72.683 27.121 73.628 27.553 74.51 27.994C75.284 28.381 76.013 28.741 76.013 29.623C76.013 30.253 75.626 30.784 74.753 30.784C73.88 30.784 73.214 30.253 72.611 29.029L72.458 29.092L72.638 30.802C73.214 31.009 73.862 31.135 74.474 31.135C75.734 31.135 76.814 30.577 76.814 29.236C76.814 28.012 75.887 27.535 74.996 27.112C74.177 26.716 73.403 26.374 73.403 25.546C73.403 24.988 73.763 24.637 74.456 24.637C75.104 24.637 75.689 24.961 76.229 26.068L76.382 26.023L76.202 24.529ZM86.5986 28.696L86.4456 28.651C85.8606 29.911 85.1946 30.775 83.9346 30.775C82.3326 30.775 81.6126 29.47 81.6126 27.706C81.6126 25.942 82.3146 24.637 83.9976 24.637C85.0326 24.637 85.6086 25.141 86.4186 26.383L86.5716 26.338L86.3646 24.709C85.8966 24.52 85.0506 24.277 84.1146 24.277C82.0086 24.277 80.5416 25.789 80.5416 27.706C80.5416 29.632 81.8556 31.135 83.9346 31.135C85.1496 31.135 86.2206 30.622 86.4006 30.478L86.5986 28.696ZM93.8582 31.135C95.5772 31.135 97.2422 29.632 97.2422 27.715C97.2422 25.798 95.5772 24.277 93.8582 24.277C92.1392 24.277 90.4922 25.798 90.4922 27.715C90.4922 29.632 92.1392 31.135 93.8582 31.135ZM93.8582 30.775C92.4272 30.775 91.5632 29.443 91.5632 27.715C91.5632 25.987 92.4272 24.637 93.8582 24.637C95.2892 24.637 96.1622 25.978 96.1622 27.715C96.1622 29.452 95.2892 30.775 93.8582 30.775ZM100.343 24.412V24.43C100.658 24.763 100.847 25.078 101.153 25.897L103.061 31.072H103.43L105.32 25.969C105.59 25.24 105.761 24.871 106.166 24.43V24.412H104.789V24.43C105.005 24.736 105.185 25.303 104.807 26.338L103.556 29.74L102.152 25.942C101.9 25.24 101.963 24.7 102.152 24.43V24.412H100.343ZM109.925 31H114.488L114.884 29.173L114.731 29.101C114.245 29.803 113.705 30.604 113.03 30.622L111.239 30.685V27.859H112.112C112.499 27.859 112.868 28.444 113.075 28.759H113.237V26.572H113.075C112.868 26.914 112.499 27.499 112.13 27.499H111.239V24.727L112.949 24.781C113.3 24.799 113.795 25.582 114.236 26.059L114.389 25.987L114.038 24.412H109.925V24.43C110.159 24.961 110.285 25.294 110.285 25.888V29.524C110.285 30.109 110.159 30.451 109.925 30.982V31ZM120.539 30.982C120.242 30.442 120.17 30.145 120.17 29.416V27.922H121.124L122.708 31H124.193V30.946C123.725 30.712 123.527 30.496 123.14 29.74L122.114 27.751C122.978 27.445 123.374 26.806 123.374 26.041C123.374 25.06 122.735 24.412 121.151 24.412H118.856V24.43C119.153 24.97 119.225 25.267 119.225 25.996V29.416C119.225 30.136 119.153 30.442 118.856 30.982V31H120.539V30.982ZM120.971 24.763C122.06 24.763 122.375 25.267 122.375 26.077C122.375 26.842 122.087 27.571 120.98 27.571H120.17V24.772C120.566 24.763 120.836 24.763 120.971 24.763ZM138.595 31H140.269V30.982C139.981 30.451 139.909 30.163 139.909 29.452V25.87C139.909 25.132 140.044 24.853 140.611 24.43V24.412H139.027L136.741 29.533L134.509 24.412H132.799V24.43C133.294 24.808 133.465 25.069 133.501 25.627V29.29C133.501 30.064 133.393 30.379 132.952 30.982V31H134.527V30.982C134.005 30.379 133.888 30.064 133.879 29.29L133.852 25.258L136.3 30.802H136.561L138.964 25.42V29.452C138.964 30.154 138.892 30.451 138.595 30.982V31ZM147.541 31.135C149.26 31.135 150.925 29.632 150.925 27.715C150.925 25.798 149.26 24.277 147.541 24.277C145.822 24.277 144.175 25.798 144.175 27.715C144.175 29.632 145.822 31.135 147.541 31.135ZM147.541 30.775C146.11 30.775 145.246 29.443 145.246 27.715C145.246 25.987 146.11 24.637 147.541 24.637C148.972 24.637 149.845 25.978 149.845 27.715C149.845 29.452 148.972 30.775 147.541 30.775ZM156.509 30.982C156.212 30.442 156.14 30.145 156.14 29.416V27.922H157.094L158.678 31H160.163V30.946C159.695 30.712 159.497 30.496 159.11 29.74L158.084 27.751C158.948 27.445 159.344 26.806 159.344 26.041C159.344 25.06 158.705 24.412 157.121 24.412H154.826V24.43C155.123 24.97 155.195 25.267 155.195 25.996V29.416C155.195 30.136 155.123 30.442 154.826 30.982V31H156.509V30.982ZM156.941 24.763C158.03 24.763 158.345 25.267 158.345 26.077C158.345 26.842 158.057 27.571 156.95 27.571H156.14V24.772C156.536 24.763 156.806 24.763 156.941 24.763ZM163.916 31H168.479L168.875 29.173L168.722 29.101C168.236 29.803 167.696 30.604 167.021 30.622L165.23 30.685V27.859H166.103C166.49 27.859 166.859 28.444 167.066 28.759H167.228V26.572H167.066C166.859 26.914 166.49 27.499 166.121 27.499H165.23V24.727L166.94 24.781C167.291 24.799 167.786 25.582 168.227 26.059L168.38 25.987L168.029 24.412H163.916V24.43C164.15 24.961 164.276 25.294 164.276 25.888V29.524C164.276 30.109 164.15 30.451 163.916 30.982V31Z" fill="white"/>
<rect x="1" y="1" width="20" height="34" rx="10" stroke="white" stroke-width="2"/>
<line x1="11" y1="22" x2="11" y2="26" stroke="white" stroke-width="2" stroke-linecap="round"/>
</svg>
