<svg width="186" height="31" viewBox="0 0 186 31" fill="none" xmlns="http://www.w3.org/2000/svg">
<path d="M14.9981 7.0976V11.4482H10.299V23.1692C10.299 24.268 10.4803 25.0012 10.8411 25.3668C11.2018 25.7324 11.9252 25.9162 13.0093 25.9162C13.37 25.9162 13.7174 25.9007 14.0476 25.8698C14.3778 25.8388 14.6946 25.7943 14.9962 25.7324V30.7698C14.4541 30.8607 13.851 30.9226 13.1887 30.9536C12.5264 30.9845 11.8794 31 11.2457 31C10.2513 31 9.31035 30.9304 8.42283 30.793C7.5334 30.6557 6.75086 30.3887 6.07329 29.9921C5.39572 29.5956 4.86131 29.0307 4.47003 28.2975C4.07876 27.5644 3.88217 26.6029 3.88217 25.4132V11.4482H0V7.0976H3.88599V0H10.3009V7.0976H15H14.9981Z" fill="white"/>
<path d="M24.0822 7.60579V11.764H24.1717C24.4723 11.0703 24.8777 10.4279 25.3877 9.83679C25.8977 9.24564 26.4839 8.73868 27.1443 8.3214C27.8046 7.90228 28.5107 7.57834 29.2605 7.34591C30.0103 7.1153 30.7924 7 31.6031 7C32.0237 7 32.4881 7.07321 33 7.21596V12.9335C32.6993 12.8767 32.3396 12.8255 31.9191 12.7816C31.4985 12.7376 31.0931 12.7157 30.703 12.7157C29.5326 12.7157 28.5411 12.9042 27.7304 13.2794C26.9197 13.6546 26.2669 14.167 25.7702 14.8167C25.2754 15.4665 24.9215 16.2242 24.7121 17.0917C24.5009 17.9573 24.3962 18.8962 24.3962 19.9065V30H18V7.60579H24.0803H24.0822Z" fill="white"/>
<path d="M34.7325 14.6334C34.8232 13.1626 35.2029 11.9417 35.8738 10.9705C36.5427 9.9993 37.3948 9.22012 38.428 8.63293C39.4613 8.04575 40.6257 7.62633 41.9192 7.37468C43.2127 7.12489 44.512 7 45.821 7C47.0065 7 48.2095 7.08202 49.4259 7.24233C50.6423 7.4045 51.7527 7.7214 52.757 8.19115C53.7614 8.66276 54.5826 9.31705 55.2207 10.154C55.8588 10.9929 56.1788 12.1038 56.1788 13.4851V25.3537C56.1788 26.3845 56.2385 27.3688 56.3619 28.3101C56.4834 29.2515 56.6954 29.958 57 30.4277H50.4302C50.3088 30.0754 50.2085 29.7157 50.1334 29.3466C50.0562 28.9793 50.0042 28.6047 49.9733 28.2207C48.9381 29.2515 47.7217 29.971 46.3222 30.383C44.9226 30.795 43.4922 31 42.0329 31C40.9071 31 39.8584 30.8677 38.8849 30.603C37.9114 30.3383 37.0593 29.9263 36.3287 29.3671C35.5981 28.8078 35.0275 28.1032 34.6169 27.2495C34.2063 26.3957 34 25.3817 34 24.2054C34 22.9118 34.2352 21.8455 34.7075 21.0067C35.1779 20.1678 35.787 19.5005 36.5331 18.9991C37.2772 18.4995 38.1292 18.1248 39.0873 17.8732C40.0454 17.6234 41.0112 17.4258 41.9847 17.2767C42.9583 17.1294 43.9164 17.012 44.859 16.9243C45.8017 16.8367 46.6383 16.7044 47.369 16.5273C48.0996 16.3502 48.676 16.093 49.102 15.7556C49.528 15.4182 49.7247 14.9242 49.6957 14.2774C49.6957 13.6007 49.582 13.0638 49.3526 12.6668C49.1232 12.2697 48.8206 11.9603 48.4408 11.7403C48.0591 11.5204 47.6196 11.3731 47.1183 11.2986C46.6171 11.2259 46.0754 11.1886 45.499 11.1886C44.2209 11.1886 43.2185 11.4533 42.4879 11.9827C41.7573 12.5121 41.3312 13.3938 41.2098 14.6297H34.7306L34.7325 14.6334ZM49.6996 19.2656C49.4259 19.5005 49.0827 19.685 48.6721 19.8174C48.2615 19.9497 47.82 20.0597 47.3497 20.1473C46.8774 20.235 46.3839 20.3095 45.8672 20.3673C45.3487 20.427 44.832 20.4997 44.3154 20.5873C43.8277 20.6749 43.3496 20.7942 42.8773 20.9396C42.405 21.0868 41.9944 21.2863 41.6455 21.5361C41.2946 21.7859 41.0132 22.1028 40.8011 22.4849C40.5871 22.867 40.4811 23.3536 40.4811 23.9407C40.4811 24.5279 40.5871 24.9716 40.8011 25.3518C41.0132 25.734 41.3023 26.036 41.6686 26.2559C42.0349 26.4759 42.459 26.6306 42.9467 26.7201C43.4325 26.8077 43.9356 26.8524 44.4523 26.8524C45.7304 26.8524 46.7174 26.6474 47.4191 26.2354C48.1188 25.8235 48.6355 25.3313 48.9709 24.7572C49.3044 24.1831 49.5107 23.6033 49.5878 23.0143C49.663 22.4271 49.7015 21.9555 49.7015 21.6032V19.2656H49.6996Z" fill="white"/>
<path d="M66.9829 30L59 7H65.7198L70.6353 22.7055H70.7248L75.6403 7H82L74.1085 30H66.9829Z" fill="white"/>
<path d="M91 7V30H85V7H91Z" fill="white"/>
<path d="M106.859 11.7228C105.836 11.7228 104.981 11.9502 104.289 12.4068C103.598 12.8635 103.034 13.4506 102.597 14.1719C102.161 14.8931 101.853 15.6871 101.673 16.5538C101.493 17.4223 101.403 18.2815 101.403 19.1351C101.403 19.9887 101.493 20.7976 101.673 21.6494C101.854 22.503 102.148 23.2746 102.554 23.9661C102.959 24.6575 103.508 25.2241 104.2 25.664C104.891 26.1057 105.733 26.3256 106.726 26.3256C108.259 26.3256 109.439 25.9063 110.265 25.0676C111.092 24.2289 111.61 23.105 111.822 21.6922H118C117.579 24.7209 116.377 27.0301 114.392 28.6181C112.407 30.206 109.867 31 106.771 31C105.028 31 103.426 30.713 101.969 30.1389C100.509 29.5649 99.2693 28.7635 98.2482 27.7346C97.2251 26.7058 96.4288 25.4776 95.8573 24.0518C95.2858 22.626 95 21.0604 95 19.3532C95 17.646 95.2629 15.9499 95.7887 14.4347C96.3145 12.9213 97.088 11.611 98.111 10.5076C99.1321 9.40429 100.38 8.54508 101.854 7.9263C103.327 7.30939 105.011 7 106.905 7C108.288 7 109.618 7.17706 110.896 7.52932C112.174 7.88157 113.315 8.41834 114.323 9.13963C115.331 9.86091 116.15 10.7574 116.781 11.8309C117.411 12.9045 117.773 14.1774 117.863 15.6461H111.595C111.174 13.0294 109.595 11.7191 106.861 11.7191L106.859 11.7228Z" fill="white"/>
<path d="M121.701 14.6334C121.787 13.1626 122.151 11.9417 122.792 10.9705C123.432 9.9993 124.247 9.22012 125.236 8.63293C126.224 8.04575 127.338 7.62633 128.575 7.37468C129.812 7.12489 131.055 7 132.307 7C133.441 7 134.592 7.08202 135.755 7.24233C136.919 7.4045 137.981 7.7214 138.941 8.19115C139.902 8.66276 140.688 9.31705 141.298 10.154C141.908 10.9929 142.214 12.1038 142.214 13.4851V25.3537C142.214 26.3845 142.272 27.3688 142.39 28.3101C142.506 29.2515 142.709 29.958 143 30.4277H136.716C136.6 30.0754 136.504 29.7157 136.432 29.3466C136.358 28.9793 136.308 28.6047 136.279 28.2207C135.289 29.2515 134.125 29.971 132.786 30.383C131.448 30.795 130.08 31 128.684 31C127.607 31 126.604 30.8677 125.673 30.603C124.741 30.3383 123.926 29.9263 123.227 29.3671C122.529 28.8078 121.983 28.1032 121.59 27.2495C121.197 26.3957 121 25.3817 121 24.2054C121 22.9118 121.225 21.8455 121.677 21.0067C122.127 20.1678 122.709 19.5005 123.423 18.9991C124.135 18.4995 124.95 18.1248 125.866 17.8732C126.783 17.6234 127.706 17.4258 128.638 17.2767C129.569 17.1294 130.485 17.012 131.387 16.9243C132.289 16.8367 133.089 16.7044 133.788 16.5273C134.487 16.3502 135.038 16.093 135.445 15.7556C135.853 15.4182 136.041 14.9242 136.013 14.2774C136.013 13.6007 135.905 13.0638 135.685 12.6668C135.466 12.2697 135.176 11.9603 134.813 11.7403C134.448 11.5204 134.027 11.3731 133.548 11.2986C133.069 11.2259 132.55 11.1886 131.999 11.1886C130.777 11.1886 129.818 11.4533 129.119 11.9827C128.42 12.5121 128.012 13.3938 127.896 14.6297H121.699L121.701 14.6334ZM136.017 19.2656C135.755 19.5005 135.427 19.685 135.034 19.8174C134.641 19.9497 134.219 20.0597 133.769 20.1473C133.317 20.235 132.845 20.3095 132.351 20.3673C131.855 20.427 131.361 20.4997 130.867 20.5873C130.4 20.6749 129.943 20.7942 129.491 20.9396C129.04 21.0868 128.647 21.2863 128.313 21.5361C127.977 21.7859 127.708 22.1028 127.505 22.4849C127.301 22.867 127.199 23.3536 127.199 23.9407C127.199 24.5279 127.301 24.9716 127.505 25.3518C127.708 25.734 127.985 26.036 128.335 26.2559C128.686 26.4759 129.091 26.6306 129.558 26.7201C130.022 26.8077 130.504 26.8524 130.998 26.8524C132.22 26.8524 133.164 26.6474 133.836 26.2354C134.505 25.8235 134.999 25.3313 135.32 24.7572C135.639 24.1831 135.836 23.6033 135.91 23.0143C135.982 22.4271 136.019 21.9555 136.019 21.6032V19.2656H136.017Z" fill="white"/>
<path d="M153.082 7.60579V11.764H153.172C153.472 11.0703 153.878 10.4279 154.388 9.83679C154.898 9.24564 155.484 8.73868 156.144 8.3214C156.805 7.90228 157.511 7.57834 158.26 7.34591C159.01 7.1153 159.792 7 160.603 7C161.024 7 161.488 7.07321 162 7.21596V12.9335C161.699 12.8767 161.34 12.8255 160.919 12.7816C160.498 12.7376 160.093 12.7157 159.703 12.7157C158.533 12.7157 157.541 12.9042 156.73 13.2794C155.92 13.6546 155.267 14.167 154.77 14.8167C154.275 15.4665 153.921 16.2242 153.712 17.0917C153.501 17.9573 153.396 18.8962 153.396 19.9065V30H147V7.60579H153.08H153.082Z" fill="white"/>
<path d="M170.892 24.9557C171.843 25.8671 173.211 26.3238 174.994 26.3238C176.272 26.3238 177.372 26.0088 178.294 25.3751C179.216 24.7433 179.781 24.0742 179.988 23.3678H185.561C184.67 26.1038 183.303 28.0589 181.459 29.235C179.615 30.411 177.387 31 174.772 31C172.958 31 171.323 30.713 169.867 30.1389C168.411 29.5649 167.178 28.7485 166.166 27.6899C165.155 26.6313 164.375 25.3676 163.825 23.8952C163.275 22.4247 163 20.8069 163 19.0419C163 17.2769 163.283 15.7486 163.848 14.2781C164.413 12.8076 165.215 11.5365 166.255 10.4629C167.294 9.38938 168.536 8.54322 169.977 7.9263C171.418 7.30939 173.015 7 174.77 7C176.731 7 178.441 7.37462 179.897 8.12573C181.353 8.87497 182.549 9.88328 183.486 11.1469C184.422 12.4124 185.098 13.8531 185.514 15.4709C185.93 17.0887 186.079 18.7791 185.961 20.5441H169.331C169.419 22.5738 169.939 24.0443 170.89 24.9557H170.892ZM178.048 12.9567C177.291 12.1329 176.138 11.721 174.593 11.721C173.582 11.721 172.744 11.8906 172.075 12.2279C171.406 12.5671 170.871 12.9846 170.47 13.486C170.069 13.9873 169.786 14.5167 169.623 15.0739C169.459 15.6331 169.363 16.1326 169.333 16.5743H179.632C179.334 14.9863 178.807 13.7805 178.05 12.9567H178.048Z" fill="white"/>
</svg>
