<svg width="23" height="24" viewBox="0 0 23 24" fill="none" xmlns="http://www.w3.org/2000/svg">
<path d="M11.8591 4.72284C10.8361 4.72284 9.9807 4.95022 9.28916 5.40685C8.59762 5.86348 8.03371 6.45057 7.59745 7.17186C7.16119 7.89314 6.85257 8.68712 6.67349 9.55378C6.49251 10.4223 6.40296 11.2815 6.40296 12.1351C6.40296 12.9887 6.49251 13.7976 6.67349 14.6494C6.85448 15.503 7.14786 16.2746 7.55364 16.9661C7.95942 17.6575 8.50808 18.2241 9.19963 18.664C9.89117 19.1057 10.7332 19.3256 11.7258 19.3256C13.2593 19.3256 14.4386 18.9063 15.2654 18.0676C16.0922 17.2289 16.6104 16.105 16.8218 14.6922H23C22.579 17.7209 21.3769 20.0301 19.3918 21.6181C17.4067 23.206 14.8672 24 11.7715 24C10.0283 24 8.42616 23.713 6.96878 23.1389C5.50949 22.5649 4.26928 21.7635 3.24816 20.7346C2.22513 19.7058 1.42881 18.4776 0.857285 17.0518C0.285762 15.626 0 14.0604 0 12.3532C0 10.646 0.262904 8.94991 0.788705 7.43465C1.31451 5.92125 2.08797 4.61101 3.111 3.50765C4.13212 2.40429 5.37994 1.54508 6.85447 0.926303C8.32709 0.309389 10.0112 0 11.9048 0C13.2879 0 14.6177 0.17706 15.896 0.529316C17.1743 0.881572 18.3154 1.41834 19.3232 2.13963C20.331 2.86091 21.1502 3.7574 21.7808 4.83094C22.4113 5.90448 22.7733 7.17745 22.8628 8.64611H16.5951C16.1741 6.02935 14.5948 4.71911 11.861 4.71911L11.8591 4.72284Z" fill="white"/>
</svg>
