<svg width="15" height="23" viewBox="0 0 15 23" fill="none" xmlns="http://www.w3.org/2000/svg">
<path d="M6.08222 0.605793V4.76399H6.17165C6.47234 4.07034 6.8777 3.42795 7.38772 2.83679C7.89774 2.24564 8.48388 1.73868 9.14425 1.3214C9.80461 0.902283 10.5107 0.57834 11.2605 0.345906C12.0103 0.115302 12.7924 0 13.6031 0C14.0237 0 14.4881 0.0732077 15 0.215963V5.93348C14.6993 5.87674 14.3396 5.8255 13.9191 5.78157C13.4985 5.73765 13.0931 5.71568 12.703 5.71568C11.5326 5.71568 10.5411 5.90419 9.7304 6.27938C8.91969 6.65457 8.26694 7.16702 7.77024 7.81674C7.27544 8.46646 6.92147 9.22416 6.71213 10.0917C6.50089 10.9573 6.39622 11.8962 6.39622 12.9065V23H0V0.605793H6.08031H6.08222Z" fill="white"/>
</svg>
