<svg width="23" height="24" viewBox="0 0 23 24" fill="none" xmlns="http://www.w3.org/2000/svg">
<path d="M7.89208 17.9557C8.84328 18.8671 10.2107 19.3238 11.9945 19.3238C13.2715 19.3238 14.3715 19.0088 15.2944 18.3751C16.2155 17.7433 16.7806 17.0742 16.9878 16.3678H22.5612C21.6703 19.1038 20.3028 21.0589 18.4588 22.235C16.6148 23.411 14.3866 24 11.7722 24C9.95835 24 8.32342 23.713 6.86743 23.1389C5.41144 22.5649 4.17772 21.7485 3.16625 20.6899C2.15479 19.6313 1.375 18.3676 0.824997 16.8952C0.275 15.4247 0 13.8069 0 12.0419C0 10.2769 0.282533 8.74862 0.847599 7.27809C1.41267 5.80756 2.21505 4.53646 3.25478 3.46292C4.2945 2.38938 5.53576 1.54322 6.97668 0.926303C8.4176 0.309389 10.0149 0 11.7703 0C13.7311 0 15.4414 0.374622 16.8974 1.12573C18.3533 1.87497 19.5494 2.88328 20.4855 4.14693C21.4216 5.41244 22.0978 6.85315 22.5141 8.47092C22.9304 10.0887 23.0792 11.7791 22.9605 13.5441H6.33062C6.41915 15.5738 6.939 17.0443 7.8902 17.9557H7.89208ZM15.0477 5.95667C14.2905 5.13287 13.1378 4.72098 11.5933 4.72098C10.5818 4.72098 9.74362 4.89058 9.07496 5.22793C8.4063 5.56713 7.87137 5.98462 7.47017 6.48598C7.06897 6.98734 6.78644 7.51666 6.62257 8.07393C6.4587 8.63307 6.36264 9.13256 6.33251 9.57428H16.6318C16.3342 7.98633 15.8068 6.78046 15.0496 5.95667H15.0477Z" fill="white"/>
</svg>
