<svg width="22" height="24" viewBox="0 0 22 24" fill="none" xmlns="http://www.w3.org/2000/svg">
<path d="M0.700693 7.6334C0.787358 6.16264 1.15062 4.94167 1.79231 3.97049C2.43216 2.9993 3.24718 2.22012 4.23553 1.63293C5.22388 1.04575 6.33761 0.62633 7.57489 0.37468C8.81217 0.124894 10.055 0 11.307 0C12.441 0 13.5917 0.0820193 14.7552 0.24233C15.9187 0.404505 16.9808 0.721398 17.9415 1.19115C18.9022 1.66276 19.6877 2.31705 20.298 3.15402C20.9084 3.99285 21.2145 5.10385 21.2145 6.48513V18.3537C21.2145 19.3845 21.2716 20.3688 21.3897 21.3101C21.5058 22.2515 21.7087 22.958 22 23.4277H15.7159C15.5997 23.0754 15.5038 22.7157 15.4319 22.3466C15.3581 21.9793 15.3084 21.6047 15.2789 21.2207C14.2887 22.2515 13.1251 22.971 11.7864 23.383C10.4477 23.795 9.07955 24 7.68369 24C6.60683 24 5.60373 23.8677 4.67254 23.603C3.74135 23.3383 2.92633 22.9263 2.22748 22.3671C1.52863 21.8078 0.98282 21.1032 0.590062 20.2495C0.197303 19.3957 0 18.3817 0 17.2054C0 15.9118 0.224968 14.8455 0.676733 14.0067C1.12665 13.1678 1.70933 12.5005 2.42293 11.9991C3.13469 11.4995 3.94971 11.1248 4.86615 10.8732C5.78259 10.6234 6.7064 10.4258 7.63759 10.2767C8.56878 10.1294 9.48521 10.012 10.3869 9.92435C11.2886 9.83674 12.0889 9.70439 12.7877 9.5273C13.4866 9.35021 14.0379 9.09297 14.4454 8.75557C14.8529 8.41817 15.041 7.92419 15.0133 7.27736C15.0133 6.6007 14.9045 6.06384 14.6851 5.6668C14.4657 5.26975 14.1762 4.96031 13.8129 4.74035C13.4478 4.52039 13.0274 4.37313 12.548 4.29856C12.0686 4.22586 11.5504 4.18858 10.9991 4.18858C9.77655 4.18858 8.81771 4.45328 8.11886 4.98268C7.42 5.51208 7.01249 6.39379 6.89633 7.62967H0.698859L0.700693 7.6334ZM15.017 12.2656C14.7552 12.5005 14.427 12.685 14.0342 12.8174C13.6414 12.9497 13.2192 13.0597 12.7693 13.1473C12.3175 13.235 11.8454 13.3095 11.3513 13.3673C10.8553 13.427 10.3611 13.4997 9.8669 13.5873C9.40039 13.6749 8.94309 13.7942 8.49132 13.9396C8.03956 14.0868 7.64681 14.2863 7.31306 14.5361C6.97746 14.7859 6.70824 15.1028 6.50541 15.4849C6.30073 15.867 6.19931 16.3536 6.19931 16.9407C6.19931 17.5279 6.30073 17.9716 6.50541 18.3518C6.70824 18.734 6.98484 19.036 7.33518 19.2559C7.68553 19.4759 8.0912 19.6306 8.55771 19.7201C9.02239 19.8077 9.50365 19.8524 9.99783 19.8524C11.2204 19.8524 12.1645 19.6474 12.8356 19.2354C13.505 18.8235 13.9992 18.3313 14.32 17.7572C14.639 17.1831 14.8363 16.6033 14.9101 16.0143C14.982 15.4271 15.0189 14.9555 15.0189 14.6032V12.2656H15.017Z" fill="#114141"/>
</svg>
