<svg width="23" height="24" viewBox="0 0 23 24" fill="none" xmlns="http://www.w3.org/2000/svg">
<path d="M0.732546 7.6334C0.82315 6.16264 1.20292 4.94167 1.87377 3.97049C2.5427 2.9993 3.39477 2.22012 4.42804 1.63293C5.46132 1.04575 6.62568 0.62633 7.9192 0.37468C9.21272 0.124894 10.512 0 11.821 0C13.0065 0 14.2095 0.0820193 15.4259 0.24233C16.6423 0.404505 17.7527 0.721398 18.757 1.19115C19.7614 1.66276 20.5826 2.31705 21.2207 3.15402C21.8588 3.99285 22.1788 5.10385 22.1788 6.48513V18.3537C22.1788 19.3845 22.2385 20.3688 22.3619 21.3101C22.4834 22.2515 22.6954 22.958 23 23.4277H16.4302C16.3088 23.0754 16.2085 22.7157 16.1334 22.3466C16.0562 21.9793 16.0042 21.6047 15.9733 21.2207C14.9381 22.2515 13.7217 22.971 12.3222 23.383C10.9226 23.795 9.49225 24 8.03294 24C6.90713 24 5.85844 23.8677 4.88492 23.603C3.91141 23.3383 3.05934 22.9263 2.32872 22.3671C1.59811 21.8078 1.02749 21.1032 0.616883 20.2495C0.206272 19.3957 0 18.3817 0 17.2054C0 15.9118 0.235188 14.8455 0.707487 14.0067C1.17786 13.1678 1.78703 12.5005 2.53306 11.9991C3.27718 11.4995 4.12924 11.1248 5.08733 10.8732C6.04543 10.6234 7.01123 10.4258 7.98475 10.2767C8.95826 10.1294 9.91635 10.012 10.859 9.92435C11.8017 9.83674 12.6383 9.70439 13.369 9.5273C14.0996 9.35021 14.676 9.09297 15.102 8.75557C15.528 8.41817 15.7247 7.92419 15.6957 7.27736C15.6957 6.6007 15.582 6.06384 15.3526 5.6668C15.1232 5.26975 14.8206 4.96031 14.4408 4.74035C14.0591 4.52039 13.6196 4.37313 13.1183 4.29856C12.6171 4.22586 12.0754 4.18858 11.499 4.18858C10.2209 4.18858 9.21851 4.45328 8.48789 4.98268C7.75727 5.51208 7.33124 6.39379 7.20979 7.62967H0.730619L0.732546 7.6334ZM15.6996 12.2656C15.4259 12.5005 15.0827 12.685 14.6721 12.8174C14.2615 12.9497 13.82 13.0597 13.3497 13.1473C12.8774 13.235 12.3839 13.3095 11.8672 13.3673C11.3487 13.427 10.832 13.4997 10.3154 13.5873C9.82768 13.6749 9.34959 13.7942 8.87729 13.9396C8.40499 14.0868 7.99438 14.2863 7.64546 14.5361C7.29461 14.7859 7.01316 15.1028 6.80111 15.4849C6.58713 15.867 6.4811 16.3536 6.4811 16.9407C6.4811 17.5279 6.58713 17.9716 6.80111 18.3518C7.01316 18.734 7.30232 19.036 7.6686 19.2559C8.03487 19.4759 8.45897 19.6306 8.94669 19.7201C9.43249 19.8077 9.93563 19.8524 10.4523 19.8524C11.7304 19.8524 12.7174 19.6474 13.4191 19.2354C14.1188 18.8235 14.6355 18.3313 14.9709 17.7572C15.3044 17.1831 15.5107 16.6033 15.5878 16.0143C15.663 15.4271 15.7015 14.9555 15.7015 14.6032V12.2656H15.6996Z" fill="#114141"/>
</svg>
