<svg width="15" height="31" viewBox="0 0 15 31" fill="none" xmlns="http://www.w3.org/2000/svg">
<path d="M14.9981 7.0976V11.4482H10.299V23.1692C10.299 24.268 10.4803 25.0012 10.8411 25.3668C11.2018 25.7324 11.9252 25.9162 13.0093 25.9162C13.37 25.9162 13.7174 25.9007 14.0476 25.8698C14.3778 25.8388 14.6946 25.7943 14.9962 25.7324V30.7698C14.4541 30.8607 13.851 30.9226 13.1887 30.9536C12.5264 30.9845 11.8794 31 11.2457 31C10.2513 31 9.31035 30.9304 8.42283 30.793C7.5334 30.6557 6.75086 30.3887 6.07329 29.9921C5.39572 29.5956 4.86131 29.0307 4.47003 28.2975C4.07876 27.5644 3.88217 26.6029 3.88217 25.4132V11.4482H0V7.0976H3.88599V0H10.3009V7.0976H15H14.9981Z" fill="#114141"/>
</svg>
